<?xml version="1.0" standalone="no"?>
<!DOCTYPE svg PUBLIC "-//W3C//DTD SVG 20010904//EN"
 "http://www.w3.org/TR/2001/REC-SVG-20010904/DTD/svg10.dtd">
<svg version="1.0" xmlns="http://www.w3.org/2000/svg"
 width="700.000000pt" height="700.000000pt" viewBox="0 0 700.000000 700.000000"
 preserveAspectRatio="xMidYMid meet">
<metadata>
Created by potrace 1.14, written by Peter Selinger 2001-2017
</metadata>
<g transform="translate(0.000000,700.000000) scale(0.100000,-0.100000)"
fill="#000000" stroke="none">
<path d="M4229 6985 c-380 -75 -683 -333 -808 -688 -43 -123 -60 -214 -62
-344 l-1 -72 -287 -3 -287 -3 -66 -33 c-77 -38 -130 -92 -167 -171 l-26 -56
-3 -382 c-2 -211 1 -383 5 -383 5 0 13 4 19 8 25 23 346 115 474 137 19 3 42
8 50 10 15 4 56 9 190 24 79 9 460 7 520 -3 19 -3 55 -8 80 -11 25 -3 56 -7
70 -10 36 -8 171 -35 200 -41 33 -7 61 -15 218 -68 l132 -44 0 357 c0 280 -3
369 -15 413 -30 118 -124 212 -242 243 -44 11 -119 15 -320 15 l-263 0 -1 38
c-2 76 3 119 21 199 62 265 250 473 511 564 80 28 107 33 184 32 159 -1 360
-58 545 -156 52 -28 127 -67 167 -88 93 -49 253 -113 323 -129 30 -7 67 -16
82 -21 15 -4 82 -6 150 -5 105 3 135 7 209 33 47 16 115 46 152 67 78 43 210
141 247 183 l26 28 -97 98 -96 97 -34 -30 c-55 -50 -151 -117 -208 -146 -115
-57 -223 -67 -358 -34 -82 21 -256 94 -348 147 -319 184 -663 272 -886 228z"/>
<path d="M3329 4756 c-2 -2 -35 -6 -74 -10 -458 -41 -939 -248 -1300 -558
-150 -129 -250 -235 -362 -386 -210 -280 -363 -626 -428 -969 -8 -43 -17 -89
-20 -103 -20 -102 -27 -442 -12 -590 67 -662 409 -1264 949 -1670 59 -44 109
-80 112 -80 3 0 26 -14 51 -31 70 -47 280 -153 380 -191 153 -59 266 -92 415
-122 174 -35 253 -41 485 -40 288 2 473 33 750 125 227 76 489 218 693 376
176 136 384 363 520 564 148 221 288 555 338 809 9 41 17 84 19 95 40 200 40
591 1 800 -20 108 -27 140 -45 206 -149 557 -488 1039 -961 1365 -109 75 -323
190 -439 236 -303 119 -544 168 -867 173 -111 2 -203 2 -205 1z m1011 -1536
l140 -140 -352 -350 -352 -350 352 -350 352 -350 -140 -140 -140 -140 -350
352 -350 352 -350 -352 -350 -353 -140 141 -139 141 352 349 351 350 -352 350
-352 350 135 135 c74 74 139 135 145 135 6 0 166 -156 356 -347 l344 -347 348
351 c191 193 348 352 350 352 1 1 65 -62 142 -139z"/>
</g>
</svg>
