<svg width="60" height="60" viewBox="0 0 60 60" fill="none" xmlns="http://www.w3.org/2000/svg">
<path d="M0 5.625C0 4.13316 0.592632 2.70242 1.64752 1.64752C2.70242 0.592632 4.13316 0 5.625 0L54.375 0C55.8668 0 57.2976 0.592632 58.3525 1.64752C59.4074 2.70242 60 4.13316 60 5.625V54.375C60 55.8668 59.4074 57.2976 58.3525 58.3525C57.2976 59.4074 55.8668 60 54.375 60H5.625C4.13316 60 2.70242 59.4074 1.64752 58.3525C0.592632 57.2976 0 55.8668 0 54.375L0 5.625ZM5.625 3.75C5.12772 3.75 4.65081 3.94754 4.29917 4.29917C3.94754 4.65081 3.75 5.12772 3.75 5.625V18.75H18.75V3.75H5.625ZM18.75 22.5H3.75V37.5H18.75V22.5ZM22.5 37.5H37.5V22.5H22.5V37.5ZM18.75 41.25H3.75V54.375C3.75 54.8723 3.94754 55.3492 4.29917 55.7008C4.65081 56.0525 5.12772 56.25 5.625 56.25H18.75V41.25ZM22.5 41.25V56.25H37.5V41.25H22.5ZM41.25 41.25V56.25H54.375C54.8723 56.25 55.3492 56.0525 55.7008 55.7008C56.0525 55.3492 56.25 54.8723 56.25 54.375V41.25H41.25ZM41.25 37.5H56.25V22.5H41.25V37.5ZM41.25 18.75H56.25V5.625C56.25 5.12772 56.0525 4.65081 55.7008 4.29917C55.3492 3.94754 54.8723 3.75 54.375 3.75H41.25V18.75ZM37.5 18.75V3.75H22.5V18.75H37.5Z" fill="#678DB9"/>
</svg>
