<svg width="45" height="45" viewBox="0 0 45 45" fill="none" xmlns="http://www.w3.org/2000/svg">
<g clip-path="url(#clip0_12_70)">
<path d="M22.5 14.4C19.474 14.4 16.5159 15.2973 13.9998 16.9785C11.4837 18.6597 9.52268 21.0492 8.36466 23.8449C7.20664 26.6406 6.90365 29.717 7.494 32.6849C8.08436 35.6528 9.54154 38.379 11.6813 40.5187C13.821 42.6585 16.5472 44.1157 19.5151 44.706C22.483 45.2964 25.5594 44.9934 28.3551 43.8354C31.1508 42.6773 33.5403 40.7163 35.2215 38.2002C36.9027 35.6841 37.8 32.7261 37.8 29.7C37.7953 25.6436 36.1818 21.7548 33.3135 18.8865C30.4452 16.0183 26.5564 14.4048 22.5 14.4V14.4ZM28.8 34.2L27 36L22.5 31.482L18 36L16.2 34.2L20.718 29.7L16.2 25.2L18 23.4L22.5 27.918L27 23.4L28.8 25.2L24.282 29.7L28.8 34.2ZM38.97 1.152C36.576 3.456 35.064 2.682 32.814 1.53C31.3406 0.622228 29.664 0.0963525 27.936 0C26.145 0.1249 24.4753 0.950829 23.2892 2.29867C22.1031 3.64651 21.4962 5.40759 21.6 7.2H18.45C17.8533 7.2 17.281 7.43705 16.859 7.85901C16.4371 8.28097 16.2 8.85326 16.2 9.45V13.824C20.2416 12.1925 24.7585 12.1925 28.8 13.824V9.45C28.8 8.85326 28.563 8.28097 28.141 7.85901C27.7191 7.43705 27.1468 7.2 26.55 7.2H23.4C23.2996 5.88548 23.7183 4.58396 24.5662 3.5745C25.4142 2.56504 26.6239 1.92801 27.936 1.8C29.3717 1.90776 30.7605 2.35837 31.986 3.114C34.272 4.302 36.882 5.652 40.23 2.448L38.97 1.152Z" fill="#678DB9"/>
</g>
<defs>
<clipPath id="clip0_12_70">
<rect width="45" height="45" fill="white"/>
</clipPath>
</defs>
</svg>
